<svg width="134" height="131" viewBox="0 0 134 131" fill="none" xmlns="http://www.w3.org/2000/svg">
<path d="M58 3.4641C61.7128 1.32051 66.2872 1.32051 70 3.4641L113.426 28.5359C117.138 30.6795 119.426 34.641 119.426 38.9282V89.0718C119.426 93.359 117.138 97.3205 113.426 99.4641L70 124.536C66.2872 126.679 61.7128 126.679 58 124.536L14.5744 99.4641C10.8616 97.3205 8.57438 93.359 8.57438 89.0718V38.9282C8.57438 34.641 10.8616 30.6795 14.5744 28.5359L58 3.4641Z" fill="#2B7FFF"/>
<path d="M64 6.4641C67.7128 4.32051 72.2872 4.32051 76 6.4641L119.426 31.5359C123.138 33.6795 125.426 37.641 125.426 41.9282V92.0718C125.426 96.359 123.138 100.321 119.426 102.464L76 127.536C72.2872 129.679 67.7128 129.679 64 127.536L20.5744 102.464C16.8616 100.321 14.5744 96.359 14.5744 92.0718V41.9282C14.5744 37.641 16.8616 33.6795 20.5744 31.5359L64 6.4641Z" fill="#2B7FFF" fill-opacity="0.2"/>
<path d="M63.65 93.234L73.79 93L88.064 31.146L78.392 31.146L66.302 84.498H62.402C61.778 84.498 61.44 84.134 61.388 83.406L48.44 31.146H39.236L52.574 83.094C53.25 85.85 53.952 87.982 54.68 89.49C55.408 90.946 56.448 91.934 57.8 92.454C59.152 92.974 61.102 93.234 63.65 93.234Z" fill="white"/>
</svg>
